#!OML:ASF H:\Dans Jumps\Project 1\Capture day 1\Session 1\subject.ASF
:FULLY-SPECIFIED
:DEGREES
456
root 1.06924 17.6501 13.3522 6.22839 6.02237 -2.76324
lowerback -5.57658 -0.232114 1.29678
upperback -0.332651 -0.434973 1.54774
thorax 2.78678 -0.208892 0.83099
lowerneck -13.5838 -1.46066 -3.24556
upperneck 15.1194 -1.75913 2.56808
head 6.90845 -0.805239 1.18948
rclavicle -1.04673e-014 -3.17062e-014
rhumerus -25.0772 -17.1137 -82.7282
rradius 21.6098
rwrist 44.3436
rhand -22.328 -26.1535
rfingers 7.12502
rthumb 4.09201 -56.094
lclavicle -1.04673e-014 -3.17062e-014
lhumerus -21.9485 -4.52214 91.6497
lradius 18.368
lwrist 1.77901
lhand -22.2641 -6.49324
lfingers 7.12502
lthumb 4.15371 23.446
rfemur -10.7546 -4.56369 22.1455
rtibia 19.8124
rfoot -14.7911 0.0257396
rtoes 15.7661
lfemur -7.25511 6.88685 -16.2601
ltibia 16.7252
lfoot -12.4104 6.01176
ltoes -8.44033
457
root 1.06776 17.6504 13.3479 6.23307 6.02839 -2.74528
lowerback -5.57873 -0.248107 1.27557
upperback -0.319741 -0.455212 1.54504
thorax 2.80154 -0.219171 0.838501
lowerneck -13.4673 -1.57159 -3.31085
upperneck 15.0416 -1.91153 2.63801
head 6.86919 -0.876934 1.20801
rclavicle 7.35503e-015 7.95139e-015
rhumerus -25.1199 -17.1111 -82.7102
rradius 21.6248
rwrist 44.2066
rhand -22.2342 -26.183
rfingers 7.12502
rthumb 4.18264 -56.1217
lclavicle 7.35503e-015 7.95139e-015
lhumerus -21.7446 -4.08136 91.4931
lradius 18.0104
lwrist 1.2001
lhand -22.2804 -6.51593
lfingers 7.12502
lthumb 4.13804 23.4236
rfemur -10.7809 -4.57273 22.1294
rtibia 19.8279
rfoot -14.7876 0.0337731
rtoes 15.8044
lfemur -7.25339 6.9008 -16.277
ltibia 16.6829
lfoot -12.4009 5.98504
ltoes -8.41094
458
root 1.0664 17.6507 13.3436 6.235 6.03284 -2.72054
lowerback -5.57513 -0.265586 1.24889
upperback -0.308266 -0.476826 1.53903
thorax 2.81163 -0.230206 0.845574
lowerneck -13.3371 -1.7016 -3.38278
upperneck 14.9588 -2.0896 2.71173
head 6.82716 -0.961242 1.22652
rclavicle -2.96935e-015 1.35174e-014
rhumerus -25.1645 -17.1055 -82.6949
rradius 21.6388
rwrist 44.0529
rhand -22.1222 -26.2038
rfingers 7.12502
rthumb 4.29079 -56.1403
lclavicle -2.96935e-015 1.35174e-014
lhumerus -21.5648 -3.6513 91.339
lradius 17.6905
lwrist 0.66672
lhand -22.2888 -6.50818
lfingers 7.12502
lthumb 4.12992 23.4315
rfemur -10.807 -4.58968 22.1045
rtibia 19.8493
rfoot -14.7863 0.0516683
rtoes 15.854
lfemur -7.24354 6.91782 -16.3015
ltibia 16.6328
lfoot -12.3912 5.95504
ltoes -8.38967
459
root 1.06502 17.651 13.3391 6.23272 6.03425 -2.6932
lowerback -5.56392 -0.283301 1.21952
upperback -0.297386 -0.498323 1.53051
thorax 2.81685 -0.241223 0.851623
lowerneck -13.2095 -1.85388 -3.4767
upperneck 14.8813 -2.29688 2.80434
head 6.78905 -1.05932 1.25204
rclavicle -1.04486e-014 -3.3197e-014
rhumerus -25.2106 -17.0976 -82.6828
rradius 21.6518
rwrist 43.8846
rhand -21.9992 -26.2123
rfingers 7.12502
rthumb 4.40959 -56.1464
lclavicle -1.04486e-014 -3.3197e-014
lhumerus -21.4116 -3.23493 91.1877
lradius 17.4152
lwrist 0.178997
lhand -22.29 -6.47385
lfingers 7.12502
lthumb 4.12877 23.4659
rfemur -10.8313 -4.60613 22.0762
rtibia 19.8749
rfoot -14.7855 0.0721191
rtoes 15.911
lfemur -7.22506 6.93658 -16.3281
ltibia 16.5768
lfoot -12.3816 5.9231
ltoes -8.37409
